<mxfile host="app.diagrams.net" modified="2020-12-05T11:51:17.267Z" agent="5.0 (Windows NT 10.0; Win64; x64) AppleWebKit/537.36 (KHTML, like Gecko) Chrome/87.0.4280.66 Safari/537.36" etag="vlOuKJhKd3k9zQcbyIPs" version="13.10.0" type="github">
  <diagram id="HL5FU7b5v3GHtU7pl1D0" name="Page-1">
    <mxGraphModel dx="960" dy="1660" grid="0" gridSize="10" guides="1" tooltips="1" connect="1" arrows="1" fold="1" page="1" pageScale="1" pageWidth="827" pageHeight="1169" math="0" shadow="0">
      <root>
        <mxCell id="0" />
        <mxCell id="1" parent="0" />
        <mxCell id="xoODFnLUPFO7UlEcx-ut-1" value="" style="ellipse;whiteSpace=wrap;html=1;fillColor=#d80073;strokeColor=#A50040;fontColor=#ffffff;sketch=1;" parent="1" vertex="1">
          <mxGeometry x="312" y="-661" width="120" height="80" as="geometry" />
        </mxCell>
        <mxCell id="9Wrrad7oVjnx4bKwL_T1-1" value="" style="strokeWidth=2;html=1;shape=mxgraph.flowchart.annotation_2;align=left;labelPosition=right;pointerEvents=1;fillColor=#1ba1e2;strokeColor=#006EAF;fontColor=#ffffff;sketch=1;" parent="1" vertex="1">
          <mxGeometry x="240" y="-440" width="60" height="160" as="geometry" />
        </mxCell>
        <mxCell id="L5w4uZSqszy5Lv5xO5T8-1" value="" style="ellipse;whiteSpace=wrap;html=1;sketch=1;" parent="1" vertex="1">
          <mxGeometry x="113" y="-613" width="120" height="80" as="geometry" />
        </mxCell>
        <mxCell id="L5w4uZSqszy5Lv5xO5T8-2" value="&lt;h1&gt;Heading&lt;/h1&gt;&lt;p&gt;Lorem ipsum dolor sit amet, consectetur adipisicing elit, sed do eiusmod tempor incididunt ut labore et dolore magna aliqua.&lt;/p&gt;" style="text;html=1;strokeColor=none;fillColor=none;spacing=5;spacingTop=-20;whiteSpace=wrap;overflow=hidden;rounded=0;sketch=1;" parent="1" vertex="1">
          <mxGeometry x="375" y="-499" width="190" height="120" as="geometry" />
        </mxCell>
        <mxCell id="meW8NayXHioV1tvIMYQ5-1" value="" style="ellipse;whiteSpace=wrap;html=1;sketch=1;fillColor=#dae8fc;strokeColor=#6c8ebf;" parent="1" vertex="1">
          <mxGeometry x="113" y="-282" width="120" height="80" as="geometry" />
        </mxCell>
        <mxCell id="meW8NayXHioV1tvIMYQ5-2" value="" style="shape=document;whiteSpace=wrap;html=1;boundedLbl=1;sketch=1;" parent="1" vertex="1">
          <mxGeometry x="452" y="-270" width="120" height="80" as="geometry" />
        </mxCell>
        <mxCell id="jwzYbrHAFdvDRfoqVBg2-1" value="&lt;h1&gt;hha&lt;/h1&gt;" style="text;html=1;strokeColor=none;fillColor=none;spacing=5;spacingTop=-20;whiteSpace=wrap;overflow=hidden;rounded=0;sketch=1;" vertex="1" parent="1">
          <mxGeometry x="73" y="-846" width="190" height="120" as="geometry" />
        </mxCell>
      </root>
    </mxGraphModel>
  </diagram>
</mxfile>
